# xmcd
#
# Track frame offsets: 
#        150
#        10686
#        23171
#        33280
#        42361
#        51639
#        63936
#        76401
#        88903
#        102257
#        109356
#        124534
#        132891
#        146101
#
# Disc length: 2094 seconds
#
# Revision: 0
# Processed by: cddbd v1.5.2PL0 Copyright (c) Steve Scherf et al.
# Submitted via: ExactAudioCopyFreeDBPlugin 1.0
#
DISCID=be082c0e
DTITLE=Patsy Cline - On The Air: Her Greatest TV Performances
DYEAR=2012
DGENRE=Country
TTITLE0=Crazy (Opry - Feb 1962)
TTITLE1=She's Got You (Opry - Feb 1962)
TTITLE2=Strange (Opry - Apr 1962)
TTITLE3=Imagine That (Opry - Apr 1962)
TTITLE4=Walkin' After Midnight (Country Style USA - Feb 1962)
TTITLE5=A Church, A Courtroom Then Goodbye (Opry - Aug 1962)
TTITLE6=I Fall To Pieces (The Greg Reeves Show - Feb 1963)
TTITLE7=You're Stronger Than Me (Opry - Aug 1962)
TTITLE8=So Wrong (Opry - Aug 1962)
TTITLE9=When I Get Thru With You (Opry - Sept 1962)
TTITLE10=Why Can't He Be You (Opry - Sept 1962)
TTITLE11=Blue Moon Of Kentucky (Opry - Feb 1963)
TTITLE12=Leavin' On Your Mind (Opry - Feb 1963)
TTITLE13=San Antonio Rose (The Greg Reeves Show - Feb 1963)
EXTD=
EXTT0=
EXTT1=
EXTT2=
EXTT3=
EXTT4=
EXTT5=
EXTT6=
EXTT7=
EXTT8=
EXTT9=
EXTT10=
EXTT11=
EXTT12=
EXTT13=
PLAYORDER=
